Coordinates
version=1
nRows=14
nColumns=40
inDegrees=yes

Units are S.I. units (second, meters, Newtons, ...)
If the header above contains a line with 'inDegrees', this indicates whether rotational values are in degrees (yes) or radians (no).

endheader
time	pelvis_tilt	pelvis_list	pelvis_rotation	pelvis_tx	pelvis_ty	pelvis_tz	hip_flexion_r	hip_adduction_r	hip_rotation_r	knee_angle_r	knee_angle_r_beta	ankle_angle_r	subtalar_angle_r	mtp_angle_r	hip_flexion_l	hip_adduction_l	hip_rotation_l	knee_angle_l	knee_angle_l_beta	ankle_angle_l	subtalar_angle_l	mtp_angle_l	lumbar_extension	lumbar_bending	lumbar_rotation	arm_flex_r	arm_add_r	arm_rot_r	elbow_flex_r	pro_sup_r	wrist_flex_r	wrist_dev_r	arm_flex_l	arm_add_l	arm_rot_l	elbow_flex_l	pro_sup_l	wrist_flex_l	wrist_dev_l
1749651039.26999998	     -1.21416791	     11.65985552	    -79.32283527	      0.15941821	     -0.39039720	      0.87102666	     80.00000000	     -7.00000000	      0.00000000	     80.00000000	      1.39626340	      0.00000000	      0.00000000	      0.00000000	     80.00000000	     -7.00000000	      0.00000000	     80.00000000	      1.39626340	      0.00000000	      0.00000000	      0.00000000	    -10.87772821	     -2.45235987	      9.68940651	     23.87748889	    -11.55883200	    -80.41921604	      0.35680823	     31.97597655	      0.00000000	      5.00000014	     13.59815328	     -3.42603736	      0.07919809	     75.00017585	     45.00000026	      0.00000000	      5.00000014
1749651039.30299997	     -1.25698522	     10.51153853	    -79.27637051	      0.16008081	     -0.38930782	      0.87341739	     80.00000000	     -7.00000000	      0.00000000	     80.00000000	      1.39626340	      0.00000000	      0.00000000	      0.00000000	     80.00000000	     -7.00000000	      0.00000000	     80.00000000	      1.39626340	      0.00000000	      0.00000000	      0.00000000	    -11.64964204	     -2.23692006	      9.82027776	     23.43220876	    -11.43536948	    -80.58569017	      0.32117113	     31.82133333	      0.00000000	      5.00000014	     13.77640834	     -3.35717750	      0.07976009	     75.00017585	     45.00000026	      0.00000000	      5.00000014
1749651039.33699989	     -1.27020413	      9.77536155	    -79.50603750	      0.16045332	     -0.38968006	      0.87465386	     80.00000000	     -7.00000000	      0.00000000	     80.00000000	      1.39626340	      0.00000000	      0.00000000	      0.00000000	     80.00000000	     -7.00000000	      0.00000000	     80.00000000	      1.39626340	      0.00000000	      0.00000000	      0.00000000	    -11.97361409	     -2.07684061	      9.81672067	     24.76868493	    -11.97428254	    -81.82514641	      0.40572018	     10.75681686	      0.00000000	      5.00000014	     13.69573700	     -3.30973706	      0.07929532	     75.00017585	     45.00000026	      0.00000000	      5.00000014
1749651039.36999989	     -0.99436697	     10.21842596	    -79.07434584	      0.16111839	     -0.39065750	      0.87376600	     80.00000000	     -7.00000000	      0.00000000	     80.00000000	      1.39626340	      0.00000000	      0.00000000	      0.00000000	     80.00000000	     -7.00000000	      0.00000000	     80.00000000	      1.39626340	      0.00000000	      0.00000000	      0.00000000	    -11.42940922	     -2.30413788	      9.05554853	     25.19406121	    -12.01550957	    -81.06281732	      0.40729042	     11.72709661	      0.00000000	      5.00000014	     13.60196911	     -3.19287126	      0.08071510	     75.00017585	     45.00000026	      0.00000000	      5.00000014
1749651039.40300012	     -1.10682879	     10.69215089	    -77.48769128	      0.16165452	     -0.39078060	      0.87305181	     80.00000000	     -7.00000000	      0.00000000	     80.00000000	      1.39626340	      0.00000000	      0.00000000	      0.00000000	     80.00000000	     -7.00000000	      0.00000000	     80.00000000	      1.39626340	      0.00000000	      0.00000000	      0.00000000	    -11.22468561	     -2.31674039	      9.04993108	     23.62665058	    -12.41126786	    -81.06432121	      0.44963201	     11.68179885	      0.00000000	      5.00000014	     14.87743584	     -2.50427485	      0.08665014	     75.00017585	     45.00000026	      0.00000000	      5.00000014
1749651039.43700004	     -1.23190593	     10.76017420	    -76.51018368	      0.16241489	     -0.39179208	      0.87280367	     80.00000000	     -7.00000000	      0.00000000	     80.00000000	      1.39626340	      0.00000000	      0.00000000	      0.00000000	     80.00000000	     -7.00000000	      0.00000000	     80.00000000	      1.39626340	      0.00000000	      0.00000000	      0.00000000	    -10.94172672	     -1.95930849	      8.49672532	     23.51047503	    -12.24905701	    -78.22441937	      0.51537303	     16.19599452	      0.00000000	      5.00000014	     16.16591092	     -2.10398316	      0.08991471	     75.00017585	     45.00000026	      0.00000000	      5.00000014
1749651039.47000003	     -1.48401261	     11.02518723	    -74.99368143	      0.16322922	     -0.39277808	      0.87190366	     80.00000000	     -7.00000000	      0.00000000	     80.00000000	      1.39626340	      0.00000000	      0.00000000	      0.00000000	     80.00000000	     -7.00000000	      0.00000000	     80.00000000	      1.39626340	      0.00000000	      0.00000000	      0.00000000	    -10.52082031	     -1.68878311	      7.62977385	     23.18906693	    -12.31240941	    -81.95346477	      0.44103951	     12.69702772	      0.00000000	      5.00000014	     17.69019794	     -2.09590191	      0.08857845	     75.00017585	     45.00000026	      0.00000000	      5.00000014
1749651039.50399995	     -1.46766633	     10.51889452	    -76.07143687	      0.16190816	     -0.39441953	      0.87396757	     80.00000000	     -7.00000000	      0.00000000	     80.00000000	      1.39626340	      0.00000000	      0.00000000	      0.00000000	     80.00000000	     -7.00000000	      0.00000000	     80.00000000	      1.39626340	      0.00000000	      0.00000000	      0.00000000	    -10.57947541	     -1.68101149	      9.05999634	     22.61513331	    -12.27514040	    -81.97309098	      0.44461268	     12.42705541	      0.00000000	      5.00000014	     18.91300714	     -2.48712762	      0.08395375	     75.00017585	     45.00000026	      0.00000000	      5.00000014
1749651039.53699994	     -0.94191725	     10.30342479	    -76.98175891	      0.16289444	     -0.39523615	      0.87553966	     80.00000000	     -7.00000000	      0.00000000	     80.00000000	      1.39626340	      0.00000000	      0.00000000	      0.00000000	     80.00000000	     -7.00000000	      0.00000000	     80.00000000	      1.39626340	      0.00000000	      0.00000000	      0.00000000	    -10.52737382	     -1.88771903	      8.82940306	     23.25836971	    -12.55554995	    -80.08203961	      0.56784931	     13.80585313	      0.00000000	      5.00000014	     18.38358101	     -3.43012902	      0.07508345	     75.00017585	     45.00000026	      0.00000000	      5.00000014
1749651039.57100010	     -1.50404676	     10.16530464	    -76.51890186	      0.16059151	     -0.39534175	      0.87658386	     80.00000000	     -7.00000000	      0.00000000	     80.00000000	      1.39626340	      0.00000000	      0.00000000	      0.00000000	     80.00000000	     -7.00000000	      0.00000000	     80.00000000	      1.39626340	      0.00000000	      0.00000000	      0.00000000	    -10.74721095	     -1.74146161	      8.62625356	     22.18720375	    -12.24319345	    -83.87499622	      0.42851222	      6.34195745	      0.00000000	      5.00000014	     17.79909942	     -5.27318000	      0.05745165	     75.00017585	     45.00000026	      0.00000000	      5.00000014
1749651039.60400009	     -1.88869062	     11.08605869	    -77.19752235	      0.16623874	     -0.38510968	      0.87635870	     80.00000000	     -7.00000000	      0.00000000	     80.00000000	      1.39626340	      0.00000000	      0.00000000	      0.00000000	     80.00000000	     -7.00000000	      0.00000000	     80.00000000	      1.39626340	      0.00000000	      0.00000000	      0.00000000	    -11.54792749	      1.52100206	      2.11164035	     26.49792480	    -10.26951406	    -81.33193693	      0.48578901	      3.81039171	      0.00000000	      5.00000014	     -0.69101068	     -4.42955464	    -86.85589667	      0.12815483	      1.51284151	      0.00000000	      5.00000014
1749651039.63700008	     -2.49320212	     12.40188547	    -79.99375811	      0.15928435	     -0.38645675	      0.87305791	     80.00000000	     -7.00000000	      0.00000000	     80.00000000	      1.39626340	      0.00000000	      0.00000000	      0.00000000	     80.00000000	     -7.00000000	      0.00000000	     80.00000000	      1.39626340	      0.00000000	      0.00000000	      0.00000000	    -11.48448487	      0.92878642	      1.64247970	     29.45646236	     -9.02340084	    -80.34287518	      0.82234359	      4.64770292	      0.00000000	      5.00000014	     -7.37637238	     -3.59498427	    -88.10592251	      0.10399777	      1.30523633	      0.00000000	      5.00000014
1749651039.67100000	     -7.91028925	     12.85304642	    -68.72049115	      0.16403760	     -0.40384345	      0.86216828	     80.00000000	     -7.00000000	      0.00000000	     80.00000000	      1.39626340	      0.00000000	      0.00000000	      0.00000000	     80.00000000	     -7.00000000	      0.00000000	     80.00000000	      1.39626340	      0.00000000	      0.00000000	      0.00000000	    -10.28564106	      5.90037825	    -14.48738400	     33.93414040	     -5.17987563	    -75.41866479	      0.62908659	      4.39403403	      0.00000000	      5.00000014	    -22.86606862	      1.59576117	    -89.17421586	      0.06338967	      0.80388508	      0.00000000	      5.00000014
1749651039.70400000	    -10.26211656	     14.00818543	    -60.20708468	      0.16225100	     -0.41696449	      0.85025592	     80.00000000	     -7.00000000	      0.00000000	     80.00000000	      1.39626340	      0.00000000	      0.00000000	      0.00000000	     80.00000000	     -7.00000000	      0.00000000	     80.00000000	      1.39626340	      0.00000000	      0.00000000	      0.00000000	     -7.90639820	      5.98835357	    -20.60247635	     33.75519898	     -5.04255100	    -75.13362800	      0.66381850	      5.29581603	      0.00000000	      5.00000014	    -33.13753134	      4.21902500	    -89.37673226	      0.05315182	      0.62944907	      0.00000000	      5.00000014
